<?xml version="1.0" encoding="utf-8"?>
<!-- Generator: Adobe Illustrator 22.1.0, SVG Export Plug-In . SVG Version: 6.00 Build 0)  -->
<svg version="1.1" id="Layer_1" xmlns="http://www.w3.org/2000/svg" xmlns:xlink="http://www.w3.org/1999/xlink" x="0px" y="0px"
	 viewBox="0 0 440 90" style="enable-background:new 0 0 440 90;" xml:space="preserve">
<style type="text/css">
	.st0{fill:#37246B;}
</style>
<title>eelogo</title>
<g>
	<g>
		<path class="st0" d="M7.7,37.4l1.9-1.9v-18l-1.9-1.9h13.6V20l-2.5-2.5h-5.9v7.4h4.3l1.9-1.9v5.5l-1.9-1.9h-4.3v9h5.9l2.5-2.5v4.3
			C21.3,37.4,7.7,37.4,7.7,37.4z"/>
		<path class="st0" d="M25,37.4l1.9-1.9v-18L25,15.7h7l-1.9,1.9v18.1h5.2l2.5-2.5v4.3L25,37.4L25,37.4z"/>
		<path class="st0" d="M40.9,37.4l1.9-1.9v-18l-1.9-1.9h13.6V20L52,17.5h-5.9v7.4h4.3l1.9-1.9v5.5l-1.9-1.9h-4.3v9H52l2.5-2.5v4.3
			C54.5,37.4,40.9,37.4,40.9,37.4z"/>
		<path class="st0" d="M67.7,37.7c-5.6,0-9.2-5.5-9.2-11.2c0-5.8,3.7-11.2,9.2-11.2c2.8,0,4.3,0.7,5.5,1.3V21l-3-3
			c-0.7-0.7-1.5-1-2.5-1c-4.1,0-5.2,5.2-5.2,9.4s1.3,9.4,5.2,9.4c1,0,1.8-0.3,2.5-1l3-3v4.5C72.1,37.1,70.7,37.7,67.7,37.7z"/>
		<path class="st0" d="M89.5,17.5h-3.6v18.1l1.9,1.9h-7.1l1.9-1.9V17.5H79L76.4,20v-4.3H92V20L89.5,17.5z"/>
		<path class="st0" d="M108.4,37.4l-5.2-10h-2.9v8.1l1.9,1.9h-7.1l1.9-1.9v-18l-1.9-1.9h7.8c3.7,0,7.5,1.9,7.5,5.9
			c0,2.3-1.7,4.4-4,5.2l4.8,8.7l1.9,1.9L108.4,37.4L108.4,37.4z M103,17.5h-2.6v8.2h2.6c2.1,0,3.7-1.6,3.7-4
			C106.7,19.2,105.1,17.5,103,17.5z"/>
		<path class="st0" d="M115.6,37.4l1.9-1.9v-18l-1.9-1.9h7l-1.9,1.9v18l1.9,1.9H115.6z"/>
		<path class="st0" d="M136.1,37.7c-5.6,0-9.2-5.5-9.2-11.2c0-5.8,3.7-11.2,9.2-11.2c2.8,0,4.3,0.7,5.5,1.3V21l-3-3
			c-0.7-0.7-1.5-1-2.5-1c-4.1,0-5.2,5.2-5.2,9.4s1.3,9.4,5.2,9.4c1,0,1.8-0.3,2.5-1l3-3v4.5C140.5,37.1,139.1,37.7,136.1,37.7z"/>
		<path class="st0" d="M155.7,37.4l1.8-1.8l-1.4-4.3H149l-1.4,4.3l1.8,1.8h-5.8l1.9-1.9l6.9-19.8h2l6.7,19.8l1.9,1.9H155.7z
			 M152.6,20.7l-3,8.8h5.9L152.6,20.7z"/>
		<path class="st0" d="M165.3,37.4l1.9-1.9v-18l-1.9-1.9h7.1l-1.9,1.9v18.1h5.2l2.5-2.5v4.3C178.2,37.4,165.3,37.4,165.3,37.4z"/>
		<path class="st0" d="M203.8,27.3v-0.2l-1.7-1.7h5.2l-1.7,1.7v0.2c0,2.1-0.3,4-0.9,5.6l2.1,2.6l1.9,1.9H204l-1.3-1.6
			c-1.3,1.3-3.2,2-5.5,2c-3.9,0-6.9-2.3-6.9-6.2c0-3.1,2.2-5.1,4.5-6c-1.4-1.9-2.1-3.6-2.1-5.2c0-3.4,3.2-5.1,5.8-5.1
			c1.8,0,3.1,0.4,4.9,1.3v4l-2.8-2.8c-0.6-0.6-1.1-1.1-2.1-1.1c-1.4,0-2.5,1.2-2.5,3.1c0,1.7,0.8,2.9,2.1,4.7l5.2,6.7
			C203.6,30.2,203.8,28.9,203.8,27.3z M193.8,31.5c0,2.9,1.7,4.7,4.2,4.7c1.2,0,2.6-0.4,3.8-1.7l-5.9-7.7
			C194.5,28.1,193.8,29.5,193.8,31.5z"/>
		<path class="st0" d="M230.2,37.7c-5.6,0-9.2-5.5-9.2-11.2c0-5.8,3.7-11.2,9.2-11.2c2.8,0,4.3,0.7,5.5,1.3V21l-3-3
			c-0.7-0.7-1.5-1-2.5-1c-4.1,0-5.2,5.2-5.2,9.4s1.3,9.4,5.2,9.4c1,0,1.8-0.3,2.5-1l3-3v4.5C234.6,37.1,233.2,37.7,230.2,37.7z"/>
		<path class="st0" d="M248.9,37.9c-5.7,0-9.3-5.6-9.3-11.3s3.6-11.3,9.3-11.3s9.3,5.6,9.3,11.3C258.2,32.3,254.7,37.9,248.9,37.9z
			 M248.9,17.1c-4.1,0-5.3,5.2-5.3,9.5s1.2,9.5,5.3,9.5s5.3-5.2,5.3-9.5S253.1,17.1,248.9,17.1z"/>
		<path class="st0" d="M277.8,37.4l1.9-1.9V19.4l-6.8,12l-6.8-12v16.2l1.9,1.9h-5.8l1.9-1.9v-18l-1.9-1.9h5.8l5.9,10.5l5.9-10.5h5.1
			l-1.9,1.9v18l1.9,1.9h-7.1V37.4z"/>
		<path class="st0" d="M296.4,28.2h-2.6v7.3l1.9,1.9h-7.1l1.9-1.9v-18l-1.9-1.9h7.8c4,0,8.2,1.9,8.2,6.3S300.4,28.2,296.4,28.2z
			 M296.4,17.5h-2.6v9h2.6c2.5,0,4.5-1.7,4.5-4.5C300.8,19.2,298.9,17.5,296.4,17.5z"/>
		<path class="st0" d="M324.1,17.6v13.7c0,4.2-3.5,6.6-7.2,6.6s-7.2-2.4-7.2-6.6V17.6l-1.9-1.9h7.1l-1.9,1.9v13.7
			c0,2.9,2.1,4.6,4.5,4.6s4.5-1.7,4.5-4.6V17.6l-1.9-1.9h5.8L324.1,17.6z"/>
		<path class="st0" d="M342.1,17.5h-3.6v18.1l1.9,1.9h-7.1l1.9-1.9V17.5h-3.6L329,20v-4.3h15.6V20L342.1,17.5z"/>
		<path class="st0" d="M347.8,37.4l1.9-1.9v-18l-1.9-1.9h13.6V20l-2.5-2.5H353v7.4h4.3l1.9-1.9v5.5l-1.9-1.9H353v9h5.9l2.5-2.5v4.3
			C361.4,37.4,347.8,37.4,347.8,37.4z"/>
		<path class="st0" d="M378.3,37.4l-5.2-10h-2.9v8.1l1.9,1.9H365l1.9-1.9v-18l-1.9-1.9h7.8c3.7,0,7.5,1.9,7.5,5.9
			c0,2.3-1.7,4.4-4,5.2l4.8,8.7l1.9,1.9L378.3,37.4L378.3,37.4z M372.9,17.5h-2.6v8.2h2.6c2.1,0,3.7-1.6,3.7-4
			C376.6,19.2,375,17.5,372.9,17.5z"/>
		<path class="st0" d="M7.7,73.8l1.9-1.9v-18L7.7,52h13.6v4.3l-2.5-2.5h-5.9v7.4h4.3l1.9-1.9v5.5l-2-1.8h-4.3v9h5.9l2.5-2.5v4.3H7.7
			z"/>
		<path class="st0" d="M41.5,53.9v21.6L28.9,56v15.9l1.9,1.9H25l1.9-1.9v-18L25,52.1h5.4l9,14.1V53.9L37.5,52h5.8L41.5,53.9z"/>
		<path class="st0" d="M64.2,63.9v8.6c-1.5,0.9-2.9,1.6-6.5,1.6c-5.9,0-10.5-5.1-10.5-11.2c0-6,4.8-11.2,10.6-11.2
			c2.5,0,4.1,0.6,5.5,1.3v4.5l-3-3c-0.7-0.7-1.4-1-2.5-1c-4.2,0-6.6,4.9-6.6,9.4s2.5,9.4,6.6,9.4c1.4,0,2.5-0.5,3.1-1.1v-7.4L59,62
			h7L64.2,63.9z"/>
		<path class="st0" d="M69.2,73.8l1.9-1.9v-18L69.2,52h7l-1.9,1.9v18l1.9,1.9H69.2z"/>
		<path class="st0" d="M96.8,53.9v21.6L84.2,56v15.9l1.9,1.9h-5.8l1.9-1.9v-18L80.3,52h5.4l9,14.1V53.9L92.8,52h5.8L96.8,53.9z"/>
		<path class="st0" d="M102.2,73.8l1.9-1.9v-18l-1.9-1.9h13.6v4.3l-2.5-2.5h-5.9v7.4h4.3l1.9-1.9v5.5l-1.9-1.9h-4.3v9h5.9l2.5-2.5
			v4.3h-13.6V73.8z"/>
		<path class="st0" d="M119.5,73.8l1.9-1.9v-18l-1.9-1.9h13.6v4.3l-2.5-2.5h-5.9v7.4h4.3l1.9-1.9v5.5l-1.9-1.9h-4.3v9h5.9l2.5-2.5
			v4.3h-13.6V73.8z"/>
		<path class="st0" d="M150,73.8l-5.2-10h-2.9v8.1l1.9,1.9h-7.1l1.9-1.9v-18l-1.9-1.9h7.8c3.7,0,7.5,1.9,7.5,5.9
			c0,2.3-1.7,4.4-4,5.2l4.8,8.7l1.9,1.9H150V73.8z M144.6,53.8H142V62h2.6c2.1,0,3.7-1.6,3.7-4C148.3,55.5,146.7,53.8,144.6,53.8z"
			/>
		<path class="st0" d="M157.1,73.8l1.9-1.9v-18l-1.9-1.9h7l-1.9,1.9v18l1.9,1.9H157.1z"/>
		<path class="st0" d="M184.7,53.9v21.6L172.1,56v15.9l1.9,1.9h-5.8l1.9-1.9v-18l-1.9-1.9h5.4l9,14.1V53.9l-1.9-1.9h5.8L184.7,53.9z
			"/>
		<path class="st0" d="M207.4,63.9v8.6c-1.5,0.9-2.9,1.6-6.5,1.6c-5.9,0-10.5-5.1-10.5-11.2c0-6,4.8-11.2,10.6-11.2
			c2.5,0,4.1,0.6,5.5,1.3v4.5l-3-3c-0.7-0.7-1.4-1-2.5-1c-4.2,0-6.6,4.9-6.6,9.4s2.5,9.4,6.6,9.4c1.4,0,2.5-0.5,3.1-1.1v-7.4
			l-1.9-1.9h7.1L207.4,63.9z"/>
	</g>
</g>
</svg>
